<?xml version="1.0" encoding="utf-8"?>
<!-- Generator: Adobe Illustrator 23.0.4, SVG Export Plug-In . SVG Version: 6.00 Build 0)  -->
<svg version="1.1" id="Capa_1" xmlns="http://www.w3.org/2000/svg" xmlns:xlink="http://www.w3.org/1999/xlink" x="0px" y="0px"
	 viewBox="0 0 22.2 21.7" style="enable-background:new 0 0 22.2 21.7;" xml:space="preserve">
<style type="text/css">
	.st0{fill:none;}
	.st1{fill:#FFFFFF;}
</style>
<g id="icon_2_" transform="translate(-18 -335)">
	<rect id="bg_2_" x="19.1" y="335.8" class="st0" width="20" height="20"/>
	<path id="path_3_" class="st1" d="M34.2,339.3h1.1c1,0,1.8,0.8,1.8,1.8V352c0,1-0.8,1.8-1.8,1.8l0,0H22.9c-1,0-1.8-0.8-1.8-1.8l0,0
		v-10.9c0-1,0.8-1.8,1.8-1.8l0,0H24v-0.7c0-0.4,0.3-0.7,0.7-0.7c0.4,0,0.7,0.3,0.7,0.7v0.7h1.5v-0.7c0-0.4,0.3-0.7,0.7-0.7
		s0.7,0.3,0.7,0.7v0.7h1.5v-0.7c0-0.4,0.3-0.7,0.7-0.7s0.7,0.3,0.7,0.7v0.7h1.5v-0.7c0-0.4,0.3-0.7,0.7-0.7s0.7,0.3,0.7,0.7
		L34.2,339.3L34.2,339.3z M34.2,340.7v0.7c0,0.4-0.3,0.7-0.7,0.7s-0.7-0.3-0.7-0.7l0,0v-0.7h-1.5v0.7c0,0.4-0.3,0.7-0.7,0.7
		s-0.7-0.3-0.7-0.7l0,0v-0.7h-1.5v0.7c0,0.4-0.3,0.7-0.7,0.7s-0.7-0.3-0.7-0.7l0,0v-0.7h-1.5v0.7c0,0.4-0.3,0.7-0.7,0.7
		c-0.4,0-0.7-0.3-0.7-0.7l0,0v-0.7H23c-0.2,0-0.4,0.2-0.4,0.4l0,0V352c0,0.2,0.2,0.4,0.4,0.4h12.4c0.2,0,0.4-0.2,0.4-0.4l0,0v-10.9
		c0-0.2-0.2-0.4-0.4-0.4H34.2z M24.7,345.5c-0.4,0-0.7-0.3-0.7-0.7s0.3-0.7,0.7-0.7h7.6c0.4,0,0.7,0.3,0.7,0.7s-0.3,0.7-0.7,0.7
		H24.7z M24.7,348c-0.4,0-0.7-0.3-0.7-0.7c0-0.4,0.3-0.7,0.7-0.7h8.7c0.4,0,0.7,0.3,0.7,0.7c0,0.4-0.3,0.7-0.7,0.7H24.7z
		 M24.7,350.6c-0.4,0-0.7-0.3-0.7-0.7s0.3-0.7,0.7-0.7h5.1c0.4,0,0.7,0.3,0.7,0.7s-0.3,0.7-0.7,0.7l0,0H24.7z"/>
</g>
</svg>
