<?xml version="1.0" encoding="utf-8"?>
<!-- Generator: Adobe Illustrator 23.0.4, SVG Export Plug-In . SVG Version: 6.00 Build 0)  -->
<svg version="1.1" id="Capa_1" xmlns="http://www.w3.org/2000/svg" xmlns:xlink="http://www.w3.org/1999/xlink" x="0px" y="0px"
	 viewBox="0 0 22.2 21.7" style="enable-background:new 0 0 22.2 21.7;" xml:space="preserve">
<style type="text/css">
	.st0{fill:#FFFFFF;}
</style>
<path id="path_2_" class="st0" d="M5.1,9.8l0.8,6.7c0,0.2,0.3,0.4,0.5,0.4H16c0.2,0,0.5-0.2,0.5-0.4l0.8-6.7c0-0.1-0.1-0.3-0.2-0.3
	l0,0H5.4C5.2,9.5,5.1,9.6,5.1,9.8z M3.7,9.9C3.6,9,4.2,8.3,5.1,8.2c0.1,0,0.2,0,0.2,0h11.6c0.8,0,1.5,0.7,1.6,1.5c0,0.1,0,0.2,0,0.2
	l-0.8,6.7c-0.1,0.9-0.9,1.6-1.8,1.6H6.4c-0.9,0-1.7-0.7-1.8-1.6C4.5,16.6,3.7,9.9,3.7,9.9z M6.4,7.1C6,7.1,5.7,6.9,5.7,6.5V6.4
	c0-0.4,0.2-0.7,0.6-0.7h0.1h9.4c0.4,0,0.7,0.2,0.7,0.6v0.1c0,0.4-0.2,0.7-0.6,0.7h-0.1H6.4z M8.1,4.8c-0.4,0-0.7-0.2-0.7-0.6V4.1
	c0-0.4,0.2-0.7,0.6-0.7h0.1h6.1c0.4,0,0.7,0.2,0.7,0.6v0.1c0,0.4-0.2,0.7-0.6,0.7h-0.1H8.1z"/>
</svg>
