<?xml version="1.0" encoding="utf-8"?>
<!-- Generator: Adobe Illustrator 23.0.4, SVG Export Plug-In . SVG Version: 6.00 Build 0)  -->
<svg version="1.1" id="Capa_1" xmlns="http://www.w3.org/2000/svg" xmlns:xlink="http://www.w3.org/1999/xlink" x="0px" y="0px"
	 viewBox="0 0 22.2 21.7" style="enable-background:new 0 0 22.2 21.7;" xml:space="preserve">
<style type="text/css">
	.st0{fill:none;}
	.st1{fill:#FFFFFF;}
</style>
<rect x="-0.9" y="-1.1" class="st0" width="24" height="24"/>
<g id="Ico_menu-light">
	<rect id="bg" x="-0.9" y="-1.1" class="st0" width="24" height="24"/>
	<path id="icon" class="st1" d="M9.9,17.4c-0.4,0-0.8-0.3-0.8-0.8s0.3-0.8,0.8-0.8h10.5c0.4,0,0.8,0.3,0.8,0.8s-0.3,0.8-0.8,0.8H9.9
		z M1.9,11.4c-0.4,0-0.8-0.3-0.8-0.8s0.3-0.8,0.8-0.8h18.5c0.4,0,0.8,0.3,0.8,0.8s-0.3,0.8-0.8,0.8H1.9z M1.9,5.4
		C1.4,5.4,1.1,5,1.1,4.6s0.3-0.8,0.8-0.8h10.5c0.4,0,0.8,0.3,0.8,0.8s-0.3,0.8-0.8,0.8H1.9z"/>
</g>
</svg>
