<?xml version="1.0" encoding="utf-8"?>
<!-- Generator: Adobe Illustrator 23.0.4, SVG Export Plug-In . SVG Version: 6.00 Build 0)  -->
<svg version="1.1" id="Capa_1" xmlns="http://www.w3.org/2000/svg" xmlns:xlink="http://www.w3.org/1999/xlink" x="0px" y="0px"
	 viewBox="0 0 22.2 21.7" style="enable-background:new 0 0 22.2 21.7;" xml:space="preserve">
<style type="text/css">
	.st0{fill:#FFFFFF;}
</style>
<path id="path_1_" class="st0" d="M13,17.1L13,17.1c0,1-0.8,1.8-1.8,1.8s-1.8-0.8-1.8-1.8H3.8c-0.4,0-0.8-0.4-0.8-0.8
	c0-0.2,0.1-0.3,0.2-0.5L5,13.7c0.3-0.4,0.5-0.9,0.6-1.4v-4c0-3,2.5-5.5,5.5-5.5s5.5,2.5,5.5,5.5v4c0.1,0.5,0.2,1,0.5,1.5l1.8,2.1
	c0.3,0.3,0.2,0.8-0.1,1.1c-0.1,0.1-0.3,0.2-0.5,0.2L13,17.1L13,17.1z M16,14.7c-0.5-0.7-0.9-1.5-0.9-2.4v-4c0-2.2-1.8-4-4-4
	s-4,1.8-4,4v4c0,0.9-0.3,1.7-0.9,2.4l-0.8,0.9h11.4L16,14.7L16,14.7z"/>
</svg>
