<?xml version="1.0" encoding="utf-8"?>
<!-- Generator: Adobe Illustrator 23.0.4, SVG Export Plug-In . SVG Version: 6.00 Build 0)  -->
<svg version="1.1" id="Capa_1" xmlns="http://www.w3.org/2000/svg" xmlns:xlink="http://www.w3.org/1999/xlink" x="0px" y="0px"
	 viewBox="0 0 22.2 21.7" style="enable-background:new 0 0 22.2 21.7;" xml:space="preserve">
<style type="text/css">
	.st0{fill:none;}
	.st1{fill:#FFFFFF;}
</style>
<g id="icon" transform="translate(-16 -454)">
	<rect id="bg_1_" x="17.1" y="454.8" class="st0" width="20" height="20"/>
	<path id="path" class="st1" d="M27.1,464.8c-2.2,0-4-1.8-4-4s1.8-4,4-4s4,1.8,4,4S29.3,464.8,27.1,464.8z M27.1,463.4
		c1.4,0,2.5-1.1,2.5-2.5s-1.1-2.5-2.5-2.5s-2.5,1.1-2.5,2.5l0,0C24.6,462.2,25.7,463.4,27.1,463.4z M34.7,468.5
		c0.2,0.4,0.3,0.8,0.3,1.2c0.1,0.4,0.1,0.7,0.1,1.1v0.1v0.1c0,1-0.8,1.8-1.8,1.8H20.9c-1,0-1.8-0.8-1.8-1.8v0v-0.1
		c0-0.4,0.1-0.7,0.1-1.1s0.1-0.8,0.3-1.2c0.6-1.2,4.7-3,7.6-3S34.1,467.3,34.7,468.5z M33.3,469.1c-0.1-0.1-0.3-0.2-0.4-0.3
		c-0.5-0.3-1-0.6-1.5-0.8c-1.3-0.6-2.8-0.9-4.2-1c-1.5,0-2.9,0.4-4.2,1c-0.5,0.2-1,0.5-1.5,0.8c-0.1,0.1-0.3,0.2-0.4,0.3l-0.1,0.1
		c-0.1,0.3-0.1,0.5-0.2,0.8c0,0.2-0.1,0.5-0.1,0.8c0,0.1,0,0.2,0,0.3c0,0.2,0.2,0.3,0.4,0.3h12.4c0.2,0,0.4-0.2,0.4-0.3
		c0-0.1,0-0.2,0-0.3c0-0.3-0.1-0.5-0.1-0.8C33.5,469.7,33.4,469.4,33.3,469.1L33.3,469.1L33.3,469.1z"/>
</g>
</svg>
