<?xml version="1.0" encoding="utf-8"?>
<!-- Generator: Adobe Illustrator 23.0.4, SVG Export Plug-In . SVG Version: 6.00 Build 0)  -->
<svg version="1.1" id="Capa_1" xmlns="http://www.w3.org/2000/svg" xmlns:xlink="http://www.w3.org/1999/xlink" x="0px" y="0px"
	 viewBox="0 0 22.2 21.7" style="enable-background:new 0 0 22.2 21.7;" xml:space="preserve">
<style type="text/css">
	.st0{fill:none;}
	.st1{fill:#5E5E5E;}
</style>
<g id="icon" transform="translate(-16 -768)">
	<rect id="bg" x="17.1" y="768.8" class="st0" width="20" height="20"/>
	<path id="path" class="st1" d="M28.2,778.1l2.8-2.8c0.3-0.3,0.3-0.7,0-1c-0.3-0.3-0.7-0.3-1,0l0,0l-4,4c-0.3,0.3-0.3,0.7,0,1
		c0,0,0,0,0,0l4,4c0.3,0.3,0.7,0.3,1,0c0.3-0.3,0.3-0.7,0-1l-2.8-2.8h8.1c0.4,0,0.7-0.3,0.7-0.7s-0.3-0.7-0.7-0.7L28.2,778.1z
		 M29.7,772.3c0.4,0,0.7-0.3,0.7-0.7s-0.3-0.7-0.7-0.7h-6.9c-1,0-1.8,0.8-1.8,1.8c0,0,0,0,0,0V785c0,1,0.8,1.8,1.8,1.8h6.9
		c0.4,0,0.7-0.3,0.7-0.7s-0.3-0.7-0.7-0.7l0,0h-6.9c-0.2,0-0.4-0.2-0.4-0.4c0,0,0,0,0,0v-12.4c0-0.2,0.2-0.4,0.4-0.4c0,0,0,0,0,0
		H29.7z"/>
</g>
</svg>
