<?xml version="1.0" encoding="utf-8"?>
<!-- Generator: Adobe Illustrator 23.0.4, SVG Export Plug-In . SVG Version: 6.00 Build 0)  -->
<svg version="1.1" id="Capa_1" xmlns="http://www.w3.org/2000/svg" xmlns:xlink="http://www.w3.org/1999/xlink" x="0px" y="0px"
	 viewBox="0 0 22.2 21.7" style="enable-background:new 0 0 22.2 21.7;" xml:space="preserve">
<style type="text/css">
	.st0{fill:#FFFFFF;}
</style>
<path id="pin-2_1_" class="st0" d="M17.2,15.4l-5.5,5.2c-0.4,0.3-0.9,0.3-1.2,0L5,15.4c-3.3-3.3-3.4-8.6-0.1-12L5,3.3
	C8.4,0,13.8,0,17.2,3.3c3.3,3.3,3.4,8.6,0.1,12C17.3,15.3,17.2,15.4,17.2,15.4L17.2,15.4z M15.9,4.6C13.3,2,9,2,6.3,4.6
	C3.7,7.2,3.6,11.4,6.2,14l0.1,0.1l4.8,4.6l4.8-4.6C18.6,11.5,18.6,7.3,15.9,4.6C16,4.7,16,4.6,15.9,4.6L15.9,4.6z M11.1,13.1
	c-2,0-3.6-1.6-3.6-3.6s1.6-3.6,3.6-3.6s3.6,1.6,3.6,3.6S13.1,13.1,11.1,13.1L11.1,13.1z M11.1,11.3c1,0,1.8-0.8,1.8-1.8
	s-0.8-1.8-1.8-1.8S9.3,8.5,9.3,9.5l0,0C9.3,10.5,10.1,11.3,11.1,11.3z"/>
</svg>
