<?xml version="1.0" encoding="utf-8"?>
<!-- Generator: Adobe Illustrator 23.0.4, SVG Export Plug-In . SVG Version: 6.00 Build 0)  -->
<svg version="1.1" id="Capa_1" xmlns="http://www.w3.org/2000/svg" xmlns:xlink="http://www.w3.org/1999/xlink" x="0px" y="0px"
	 viewBox="0 0 22.2 21.7" style="enable-background:new 0 0 22.2 21.7;" xml:space="preserve">
<style type="text/css">
	.st0{fill:none;}
	.st1{fill:#FFFFFF;}
</style>
<rect x="-0.9" y="-1.1" class="st0" width="24" height="24"/>
<g id="icons_back-light">
	<rect id="bg" x="-0.9" y="-1.1" class="st0" width="24" height="24"/>
	<path id="icon" class="st1" d="M9.3,17.4l-5.9-5.9c-0.2-0.1-0.4-0.4-0.4-0.6c0-0.1,0-0.3,0.1-0.4c0-0.1,0.1-0.1,0.1-0.2
		c0,0,0.1,0,0.1-0.1l5.9-5.9c0.3-0.3,0.8-0.3,1.1,0c0.3,0.3,0.3,0.8,0,1.1l-4.7,4.7h12.7c0.4,0,0.8,0.3,0.8,0.7c0,0,0,0,0,0
		c0,0.4-0.3,0.8-0.8,0.8H5.7l4.7,4.7c0.3,0.3,0.3,0.8,0,1.1c-0.1,0.1-0.3,0.2-0.5,0.2C9.7,17.6,9.5,17.5,9.3,17.4z"/>
</g>
</svg>
